/* XPM */
static char * veles16_xpm[] = {
"16 16 96 2",
"  	c None",
". 	c #414141",
"+ 	c #444444",
"@ 	c #454545",
"# 	c #434343",
"$ 	c #404040",
"% 	c #3D3D3D",
"& 	c #383838",
"* 	c #474747",
"= 	c #4A4A4A",
"- 	c #484848",
"; 	c #3E3E3E",
"> 	c #3A3A3A",
", 	c #363636",
"' 	c #313131",
") 	c #4F4F4F",
"! 	c #4C4C4C",
"~ 	c #464646",
"{ 	c #353535",
"] 	c #2C2C2C",
"^ 	c #515151",
"/ 	c #4E4E4E",
"( 	c #393939",
"_ 	c #343434",
": 	c #303030",
"< 	c #282828",
"[ 	c #494543",
"} 	c #947C6E",
"| 	c #4F4D4C",
"1 	c #373737",
"2 	c #3A3836",
"3 	c #80695A",
"4 	c #24201E",
"5 	c #171717",
"6 	c #3B3B3B",
"7 	c #665952",
"8 	c #8E786B",
"9 	c #847267",
"0 	c #837066",
"a 	c #7F6D63",
"b 	c #7A675E",
"c 	c #756358",
"d 	c #705C52",
"e 	c #7F6759",
"f 	c #493D36",
"g 	c #1B1B1B",
"h 	c #141414",
"i 	c #333333",
"j 	c #8F7869",
"k 	c #987E6F",
"l 	c #826E63",
"m 	c #766459",
"n 	c #685950",
"o 	c #5B4D45",
"p 	c #6A564B",
"q 	c #715C50",
"r 	c #212121",
"s 	c #1C1C1C",
"t 	c #151515",
"u 	c #2F2F2F",
"v 	c #413D3B",
"w 	c #A88876",
"x 	c #A28472",
"y 	c #957A68",
"z 	c #8B7162",
"A 	c #836B5C",
"B 	c #927665",
"C 	c #282626",
"D 	c #2A2A2A",
"E 	c #252525",
"F 	c #4E423B",
"G 	c #7D6658",
"H 	c #272727",
"I 	c #272626",
"J 	c #7D6657",
"K 	c #4B4038",
"L 	c #232323",
"M 	c #202020",
"N 	c #1A1A1A",
"O 	c #242424",
"P 	c #1E1E1E",
"Q 	c #222222",
"R 	c #7A6455",
"S 	c #68564A",
"T 	c #6B584C",
"U 	c #786254",
"V 	c #181818",
"W 	c #1F1F1F",
"X 	c #2B2927",
"Y 	c #987B69",
"Z 	c #9E806C",
"` 	c #282625",
" .	c #1D1D1D",
"..	c #5B4B41",
"+.	c #55463C",
"@.	c #161616",
"                                ",
"        . + @ # $ % &           ",
"      . * = = - # ; > , '       ",
"    % @ = ) ) ! ~ $ > { ' ]     ",
"    $ ~ ! ^ ^ / * $ ( _ : <     ",
"  & [ } | ) ) ! @ % 1 2 3 4 5   ",
"  , 6 7 8 9 0 a b c d e f g h   ",
"  i , > j k l m n o p q r s t   ",
"  u ' _ v w x y z A B C r s h   ",
"  D ] D E F G H I J K L M N t   ",
"  O P P Q O R S T U O r P V 5   ",
"    h N W r X Y Z ` r P N t     ",
"    V t N  .M ..+.M  .N t       ",
"      V h 5 N g g N 5 h         ",
"          V t t t @.V           ",
"                                "};
